<svg xmlns:xlink="http://www.w3.org/1999/xlink" xmlns="http://www.w3.org/2000/svg" fill="none" viewBox="0 0 37 30" height="30" width="37">
<g clip-path="url(#clip0_222_3981)">
<path fill="#052FFF" d="M36.0422 4.56833C30.6738 7.1063 27.9897 10.0884 27.9897 13.5146C30.2779 13.7684 32.17 14.6673 33.6661 16.2112C35.1622 17.7552 35.9102 19.5423 35.9102 21.5727C35.9102 23.7299 35.1842 25.5488 33.7321 27.0293C32.28 28.5098 30.4539 29.25 28.2537 29.25C25.7896 29.25 23.6555 28.2877 21.8514 26.3631C20.0472 24.4384 19.1452 22.1014 19.1452 19.352C19.1452 11.1035 23.9414 4.65295 33.534 0L36.0422 4.56833ZM17.0971 4.56833C11.6847 7.1063 8.97859 10.0884 8.97859 13.5146C11.3107 13.7684 13.2248 14.6673 14.7209 16.2112C16.217 17.7552 16.9651 19.5423 16.9651 21.5727C16.9651 23.7299 16.228 25.5488 14.7539 27.0293C13.2798 28.5098 11.4427 29.25 9.24261 29.25C6.77845 29.25 4.65535 28.2877 2.87323 26.3631C1.09112 24.4384 0.200073 22.1014 0.200073 19.352C0.200073 11.1035 4.97431 4.65295 14.5229 0L17.0971 4.56833Z" clip-rule="evenodd" fill-rule="evenodd"></path>
</g>
<defs>
<clipPath id="clip0_222_3981">
<rect transform="translate(0.200073)" fill="white" height="29.25" width="36"></rect>
</clipPath>
</defs>
</svg>